:version 1.10
:name ASF
:units
  mass 1
  length 1
  angle deg
:documentation
  ASF file generated by Kaydara
:root
  axis xyz
  order  tx ty tz rx ry rz
  position 0 0 0
  orientation 0 0 0
:bonedata
  begin
    id 1
    name abdomenDummy
    direction 1 -1.27917e-005 -1.26829e-007
    length 1.79048
    axis 0 0 0 xyz
  end
  begin
    id 2
    name abdomen
    direction 0.987238 0.159249 -9.68575e-008
    length 8.61378
    axis 2.73208e-005 5.54953e-006 9.16328 xyz
    dof rx ry rz
  end
  begin
    id 3
    name chest
    direction 0 0 0
    length 0
    axis 2.65071e-005 8.63688e-006 2.59796 xyz
    dof rx ry rz
  end
  begin
    id 4
    name neckDummyDummy
    direction 0.998972 0.0453274 -1.50742e-007
    length 9.56202
    axis 2.65071e-005 8.63688e-006 2.59796 xyz
  end
  begin
    id 5
    name neckDummy
    direction 0.99977 0.0214525 -1.61748e-007
    length 1.93574
    axis 2.62932e-005 9.26758e-006 1.22924 xyz
    dof rx ry rz
  end
  begin
    id 6
    name neck
    direction 0.99928 -0.0379406 -1.88707e-007
    length 3.70367
    axis 2.56966e-005 1.08122e-005 -2.17436 xyz
    dof rx ry rz
  end
  begin
    id 7
    name head
    direction 0.992648 -0.121037 -2.25408e-007
    length 6.35158
    axis 2.47068e-005 1.29149e-005 -6.95196 xyz
    dof rx ry rz
  end
  begin
    id 8
    name figureHair
    direction -0.86681 -0.498639 -7.83376e-008
    length 8.29884
    axis -2.7515e-005 4.48842e-006 -150.09 xyz
    dof rx ry rz
  end
  begin
    id 9
    name lCollarDummy
    direction 0.994611 0.0451299 -0.0933417
    length 9.60395
    axis 2.65071e-005 8.63688e-006 2.59796 xyz
  end
  begin
    id 10
    name lCollar
    direction 0.0384146 0.00127577 -0.999261
    length 6.95318
    axis 90.4899 87.7973 1.90202 xyz
    dof rx ry rz
  end
  begin
    id 11
    name lShldr
    direction -0.030648 0.0920515 -0.995282
    length 9.61158
    axis -161.793 84.4324 108.415 xyz
    dof rx ry rz
  end
  begin
    id 12
    name lForeArm
    direction 0.000163956 -0.0977586 -0.99521
    length 8.6068
    axis 0.134773 84.3899 -89.8525 xyz
    dof rx ry rz
  end
  begin
    id 13
    name lHand
    direction -0.0190533 -0.1444 -0.989336
    length 7.61479
    axis -7.3729 81.6249 -97.517 xyz
    dof rx ry rz
  end
  begin
    id 14
    name rCollarDummy
    direction 0.994871 0.0442627 0.0909555
    length 9.60761
    axis 2.65071e-005 8.63688e-006 2.59796 xyz
  end
  begin
    id 15
    name rCollar
    direction 0.0334251 -4.74072e-007 0.999441
    length 6.97058
    axis -178.152 -88.0845 -0.000674207 xyz
    dof rx ry rz
  end
  begin
    id 16
    name rShldr
    direction -0.026922 0.0719509 0.997045
    length 9.60913
    axis 71.2822 -85.594 110.514 xyz
    dof rx ry rz
  end
  begin
    id 17
    name rForeArm
    direction 0.00134679 -0.118986 0.992895
    length 8.57176
    axis -88.7923 -83.1659 -89.3516 xyz
    dof rx ry rz
  end
  begin
    id 18
    name rHand
    direction -0.0185183 -0.0768601 0.99687
    length 7.69687
    axis -74.5596 -85.4655 -103.546 xyz
    dof rx ry rz
  end
  begin
    id 19
    name lThighDummy
    direction -0.236086 -0.0385456 -0.970967
    length 4.99155
    axis 0 0 0 xyz
  end
  begin
    id 20
    name lThigh
    direction -0.993968 0.0148998 -0.108653
    length 13.572
    axis -91.4001 6.23768 179.141 xyz
    dof rx ry rz
  end
  begin
    id 21
    name lShin
    direction -0.992341 0.0904576 -0.0841193
    length 18.5862
    axis -91.4558 4.82538 174.792 xyz
    dof rx ry rz
  end
  begin
    id 22
    name lFoot
    direction 0.0209381 -0.999771 -0.00453005
    length 8.44474
    axis 4.86759 0.259522 -88.8001 xyz
    dof rx ry rz
  end
  begin
    id 23
    name rThighDummy
    direction -0.236086 -0.0385456 0.970967
    length 4.99155
    axis 0 0 0 xyz
  end
  begin
    id 24
    name rThigh
    direction -0.993968 0.0148995 0.108653
    length 13.5721
    axis -89.7059 -6.2377 179.141 xyz
    dof rx ry rz
  end
  begin
    id 25
    name rShin
    direction -0.9925 0.0899962 0.0827255
    length 18.6716
    axis -89.2745 -4.74775 174.819 xyz
    dof rx ry rz
  end
  begin
    id 26
    name rFoot
    direction 0.0301721 -0.999545 9.70865e-005
    length 8.45013
    axis -2.50066e-005 -0.00555246 -88.271 xyz
    dof rx ry rz
  end
:hierarchy
  begin
    root abdomenDummy lThighDummy rThighDummy
    abdomenDummy abdomen
    abdomen chest
    chest neckDummyDummy lCollarDummy rCollarDummy
    neckDummyDummy neckDummy
    neckDummy neck
    neck head
    head figureHair
    lCollarDummy lCollar
    lCollar lShldr
    lShldr lForeArm
    lForeArm lHand
    rCollarDummy rCollar
    rCollar rShldr
    rShldr rForeArm
    rForeArm rHand
    lThighDummy lThigh
    lThigh lShin
    lShin lFoot
    rThighDummy rThigh
    rThigh rShin
    rShin rFoot
  end

:SAMPLES-PER-SECOND 25
:FULLY-SPECIFIED
:DEGREES
700
root  4.85902 37.0029 -1.7855 -178.68 0.319717 90.5032
abdomen  0.002293 6.47023 -11.153
chest  -4.50024 -25.796 -3.50713
neckDummy  9.09964e-021 0 8.72668e-016
neck  13.1623 28.2355 22.5484
head  -0.505404 -9.89664 -16.9698
figureHair  0 1.51661e-021 -9.5315e-016
lCollar  -5.15695e-016 -6.42944e-016 -7.59357e-014
lShldr  -24.8915 -26.3984 15.5284
lForeArm  -127.354 -86.5095 142.434
lHand  0.254698 0.195082 5.2986
rCollar  1.7976e-016 -5.12864e-014 1.62755e-015
rShldr  -4.74656 38.9354 37.0655
rForeArm  -5.05975 0.0168203 78.475
rHand  0.555617 -10.9741 -0.72432
lThigh  -6.37434 -7.08577 -0.725161
lShin  -8.46949 5.60641 -4.0005
lFoot  4.82552 -0.387895 -3.49848
rThigh  10.2247 -6.92373 -2.10988
rShin  8.7623 6.86381 4.21636
rFoot  -3.91752 0.0234344 -3.82958
701
root  4.78678 37.0119 -1.88497 -178.616 0.248215 90.8447
abdomen  2.00211 4.90221 -11.3877
chest  -2.4081 -25.263 -3.0507
neckDummy  9.09964e-021 0 8.72668e-016
neck  12.5281 33.0987 22.9247
head  -3.24437 -14.099 -16.946
figureHair  0 1.51661e-021 -9.5315e-016
lCollar  -5.15695e-016 -6.42944e-016 -7.59357e-014
lShldr  -33.0477 -15.4856 20.9469
lForeArm  -149.794 -82.1769 163.154
lHand  0.254698 0.195082 5.2986
rCollar  1.7976e-016 -5.12864e-014 1.62755e-015
rShldr  -4.89996 39.3164 33.6996
rForeArm  -5.43421 -0.02252 80.2073
rHand  0.599326 -10.7345 -1.21925
lThigh  -6.52845 -6.97848 -0.494196
lShin  -8.30849 5.09292 -4.11045
lFoot  4.51362 -0.361149 -3.55527
rThigh  10.1288 -6.97546 -1.94351
rShin  8.92006 6.60763 4.29927
rFoot  -4.17196 0.0478604 -3.81307
702
root  4.67515 37.0231 -1.96941 -179.045 0.147842 91.0285
abdomen  3.99003 2.87049 -11.7467
chest  -0.11899 -23.9177 -2.81495
neckDummy  9.09964e-021 0 8.72668e-016
neck  11.3744 37.077 22.0215
head  -5.84749 -17.4448 -15.9236
figureHair  0 1.51661e-021 -9.5315e-016
lCollar  -5.15695e-016 -6.42944e-016 -7.59357e-014
lShldr  -39.1912 -3.55942 21.0659
lForeArm  -156.377 -77.1484 169.358
lHand  0.254698 0.195082 5.2986
rCollar  1.7976e-016 -5.12864e-014 1.62755e-015
rShldr  -5.24947 40.5256 29.861
rForeArm  -5.40796 -0.0592531 81.8268
rHand  0.625213 -10.8217 -1.40779
lThigh  -6.82456 -6.61851 -0.130401
lShin  -8.48178 4.68474 -4.2594
lFoot  4.20617 -0.341536 -3.42508
rThigh  9.81606 -6.79779 -1.5612
rShin  8.78241 6.07895 4.24811
rFoot  -4.40865 0.0519804 -3.95098
703
root  4.52735 37.0351 -2.02888 -179.804 0.0295105 91.3069
abdomen  5.83791 0.215972 -11.9374
chest  2.26201 -21.4314 -2.76578
neckDummy  9.09964e-021 0 8.72668e-016
neck  9.39022 39.6419 19.6157
head  -8.19568 -19.741 -14.0862
figureHair  0 1.51661e-021 -9.5315e-016
lCollar  -5.15695e-016 -6.42944e-016 -7.59357e-014
lShldr  -45.3041 7.77148 16.3337
lForeArm  -159.965 -71.5833 172.284
lHand  0.254698 0.195082 5.2986
rCollar  1.7976e-016 -5.12864e-014 1.62755e-015
rShldr  -6.02621 42.5771 25.4709
rForeArm  -5.40029 -0.0969317 83.4955
rHand  0.674834 -10.8053 -1.85379
lThigh  -6.99325 -6.31759 0.142855
lShin  -9.0961 4.41214 -4.3059
lFoot  3.95309 -0.330546 -3.15584
rThigh  9.54667 -6.66871 -1.20518
rShin  8.25902 5.46892 4.2176
rFoot  -4.70191 0.0499846 -4.17013
704
root  4.36338 37.0416 -2.05137 179.159 -0.0627594 91.7218
abdomen  7.41707 -3.20116 -12.0452
chest  4.65112 -17.4706 -2.9343
neckDummy  9.09964e-021 0 8.72668e-016
neck  6.83304 40.3057 16.8191
head  -10.0679 -20.8624 -12.4271
figureHair  0 1.51661e-021 -9.5315e-016
lCollar  -5.15695e-016 -6.42944e-016 -7.59357e-014
lShldr  -52.357 18.2764 7.18161
lForeArm  -164.028 -65.9434 173.892
lHand  0.254698 0.195082 5.2986
rCollar  1.7976e-016 -5.12864e-014 1.62755e-015
rShldr  -7.097 45.6954 20.7837
rForeArm  -5.83419 -0.129753 84.9528
rHand  0.714817 -10.966 -2.11977
lThigh  -7.10117 -6.22816 0.322345
lShin  -10.0396 4.37225 -4.34265
lFoot  3.7982 -0.330797 -2.7559
rThigh  9.42079 -6.79618 -0.994778
rShin  7.3236 5.02998 4.22171
rFoot  -4.92193 0.0427595 -4.37287
705
root  4.20426 37.0424 -2.04872 177.882 -0.112427 92.2102
abdomen  8.71185 -6.91752 -12.453
chest  6.86252 -12.4733 -2.93355
neckDummy  9.09964e-021 0 8.72668e-016
neck  4.2305 39.1944 14.4921
head  -11.364 -20.9608 -11.2215
figureHair  0 1.51661e-021 -9.5315e-016
lCollar  -5.15695e-016 -6.42944e-016 -7.59357e-014
lShldr  -60.2565 28.295 -6.26042
lForeArm  -167.243 -60.4261 174.898
lHand  0.254698 0.195082 5.2986
rCollar  1.7976e-016 -5.12864e-014 1.62755e-015
rShldr  -8.48371 49.7361 15.9139
rForeArm  -6.7175 -0.157263 86.1789
rHand  0.732295 -11.2031 -2.14362
lThigh  -7.30892 -6.2015 0.515256
lShin  -11.141 4.40971 -4.51948
lFoot  3.7302 -0.339629 -2.30074
rThigh  9.2868 -7.20624 -0.827974
rShin  6.18508 4.83933 4.13775
rFoot  -5.01854 0.0322998 -4.51871
706
root  4.04841 37.0433 -2.03831 176.542 -0.170914 92.6519
abdomen  9.70512 -10.2617 -13.2307
chest  8.68234 -7.35484 -2.4549
neckDummy  9.09964e-021 0 8.72668e-016
neck  1.97597 36.8286 12.7155
head  -12.0638 -20.321 -10.2158
figureHair  0 1.51661e-021 -9.5315e-016
lCollar  -5.15695e-016 -6.42944e-016 -7.59357e-014
lShldr  -68.4613 37.3306 -24.3654
lForeArm  -168.468 -55.5885 175.533
lHand  0.254698 0.195082 5.2986
rCollar  1.7976e-016 -5.12864e-014 1.62755e-015
rShldr  -10.6175 54.0404 10.7725
rForeArm  -7.78673 -0.183643 87.363
rHand  0.746381 -11.1726 -2.28076
lThigh  -7.60364 -6.07165 0.752584
lShin  -12.2017 4.39655 -4.77308
lFoot  3.70817 -0.352535 -1.85088
rThigh  9.04776 -7.56984 -0.592648
rShin  5.10916 4.61606 3.97947
rFoot  -5.06338 0.0175305 -4.66347
707
root  3.89087 37.0431 -2.01588 175.297 -0.249283 92.9698
abdomen  10.4068 -12.8236 -13.8285
chest  10.0745 -3.02345 -1.93077
neckDummy  9.09964e-021 0 8.72668e-016
neck  0.244836 33.9931 11.2599
head  -12.2672 -19.4042 -9.32397
figureHair  0 1.51661e-021 -9.5315e-016
lCollar  -5.15695e-016 -6.42944e-016 -7.59357e-014
lShldr  -75.6286 43.4524 -47.3422
lForeArm  -169.011 -52.1745 175.895
lHand  0.254698 0.195082 5.2986
rCollar  1.7976e-016 -5.12864e-014 1.62755e-015
rShldr  -13.7286 57.7411 5.40077
rForeArm  -8.88481 -0.206444 88.3946
rHand  0.746167 -11.1645 -2.28362
lThigh  -7.87077 -5.81616 0.957541
lShin  -13.1773 4.35174 -4.99132
lFoot  3.69516 -0.365707 -1.41055
rThigh  8.83308 -7.69555 -0.374504
rShin  4.07624 4.26179 3.85673
rFoot  -5.02264 -0.0041972 -4.80694
708
root  3.74569 37.0412 -1.97303 174.063 -0.231384 93.282
abdomen  10.9197 -14.7182 -13.8005
chest  11.234 0.61375 -1.70176
neckDummy  9.09964e-021 0 8.72668e-016
neck  -1.3678 30.9291 9.41484
head  -12.334 -18.6664 -7.99792
figureHair  0 1.51661e-021 -9.5315e-016
lCollar  -5.15695e-016 -6.42944e-016 -7.59357e-014
lShldr  -78.1181 44.5366 -71.1869
lForeArm  -168.125 -51.2698 175.981
lHand  0.254698 0.195082 5.2986
rCollar  1.7976e-016 -5.12864e-014 1.62755e-015
rShldr  -17.6118 60.636 -0.229513
rForeArm  -9.69496 -0.225105 89.2479
rHand  0.741071 -11.3661 -2.13192
lThigh  -7.95642 -5.52145 0.985654
lShin  -14.2847 4.18107 -5.16096
lFoot  3.69175 -0.377236 -1.04693
rThigh  8.76264 -7.92404 -0.317949
rShin  2.9405 4.10097 3.74826
rFoot  -4.90472 -0.0220257 -4.87401
709
root  3.62093 37.0391 -1.92815 172.979 -0.079895 93.6092
abdomen  11.3139 -16.607 -13.4875
chest  12.4075 4.74814 -1.41457
neckDummy  9.09964e-021 0 8.72668e-016
neck  -3.25514 27.1871 7.09539
head  -12.5525 -18.1982 -5.89243
figureHair  0 1.51661e-021 -9.5315e-016
lCollar  -5.15695e-016 -6.42944e-016 -7.59357e-014
lShldr  -72.1852 41.5883 -87.8143
lForeArm  -164.108 -53.9037 175.718
lHand  0.254698 0.195082 5.2986
rCollar  1.7976e-016 -5.12864e-014 1.62755e-015
rShldr  -22.4389 63.3721 -6.7349
rForeArm  -9.86806 -0.244094 90.1256
rHand  0.756638 -11.6294 -2.1257
lThigh  -7.83077 -5.25438 0.814348
lShin  -15.4695 3.83581 -5.29804
lFoot  3.7185 -0.386953 -0.838209
rThigh  8.78116 -8.42525 -0.406475
rShin  1.87146 4.30207 3.5843
rFoot  -4.81664 -0.0215367 -4.81586
710
root  3.50435 37.0369 -1.91838 172.504 0.118103 93.8452
abdomen  11.3827 -18.8995 -13.2281
chest  13.4166 9.72194 -1.07288
neckDummy  9.09964e-021 0 8.72668e-016
neck  -4.67805 23.5287 6.08598
head  -12.6861 -18.1063 -4.40628
figureHair  0 1.51661e-021 -9.5315e-016
lCollar  -5.15695e-016 -6.42944e-016 -7.59357e-014
lShldr  -58.9049 37.7434 -93.7019
lForeArm  -158.335 -60.0956 174.943
lHand  0.254698 0.195082 5.2986
rCollar  1.7976e-016 -5.12864e-014 1.62755e-015
rShldr  -28.3813 66.2543 -14.2437
rForeArm  -9.53163 -0.263101 91.0139
rHand  0.769321 -12.0425 -2.02217
lThigh  -7.68245 -4.99729 0.616779
lShin  -16.0995 3.42126 -5.41744
lFoot  3.7787 -0.394119 -0.813249
rThigh  8.84023 -8.79593 -0.545163
rShin  1.37151 4.64468 3.44358
rFoot  -4.76404 0.00271021 -4.59315
711
root  3.39424 37.0353 -1.96861 173.095 0.272629 93.9396
abdomen  10.6403 -20.9532 -12.5697
chest  13.5272 14.1137 -1.29941
neckDummy  9.09964e-021 0 8.72668e-016
neck  -4.57355 21.4856 7.83731
head  -12.1444 -18.4011 -4.90665
figureHair  0 1.51661e-021 -9.5315e-016
lCollar  -5.15695e-016 -6.42944e-016 -7.59357e-014
lShldr  -41.8258 34.1247 -91.5392
lForeArm  -152.71 -69.1161 173.068
lHand  0.254698 0.195082 5.2986
rCollar  1.7976e-016 -5.12864e-014 1.62755e-015
rShldr  -33.5282 68.6754 -19.9411
rForeArm  -8.99637 -0.275415 91.6067
rHand  0.763488 -12.3519 -1.82597
lThigh  -7.57033 -4.77705 0.482664
lShin  -15.6964 2.94952 -5.45436
lFoot  3.84827 -0.393938 -1.04191
rThigh  8.99216 -8.80542 -0.715034
rShin  1.83656 5.04403 3.45043
rFoot  -4.73745 0.0566194 -4.14511
